<svg width="30" height="37" viewBox="0 0 30 37" fill="none" xmlns="http://www.w3.org/2000/svg">
<path d="M29.95 21.3214V32.9124H23.825V22.0714C23.825 19.026 22.7833 17.5033 20.7 17.5033C19.1583 17.5033 18.0958 18.3214 17.5125 19.9578C17.3875 20.276 17.325 20.8214 17.325 21.5942V32.9124H11.1375C11.1791 20.6851 11.1791 13.9351 11.1375 12.6624H17.325V15.526L17.2625 15.5942H17.325V15.526C18.6583 13.2987 20.5125 12.1851 22.8875 12.1851C25.0125 12.1851 26.7208 12.9578 28.0125 14.5033C29.3041 16.0487 29.95 18.3214 29.95 21.3214ZM4.69995 2.91235C3.65828 2.91235 2.81453 3.2419 2.1687 3.90099C1.52287 4.56008 1.19995 5.38963 1.19995 6.38963C1.19995 7.38963 1.51245 8.23054 2.13745 8.91235C2.76245 9.59417 3.57495 9.93508 4.57495 9.93508H4.63745C5.67912 9.93508 6.52287 9.59417 7.1687 8.91235C7.81453 8.23054 8.13745 7.38963 8.13745 6.38963C8.09578 5.38963 7.76245 4.56008 7.13745 3.90099C6.51245 3.2419 5.69995 2.91235 4.69995 2.91235ZM1.51245 32.9124H7.69995V12.6624H1.51245V32.9124Z" fill="white"/>
</svg>
